<?xml version="1.0" encoding="UTF-8" standalone="no"?>
<!DOCTYPE svg PUBLIC "-//W3C//DTD SVG 1.1//EN"
 "http://www.w3.org/Graphics/SVG/1.1/DTD/svg11.dtd">
<!-- Generated by graphviz version 2.38.0 (20140413.2041)
 -->
<!-- Title: G Pages: 1 -->
<svg width="521pt" height="168pt"
 viewBox="0.00 0.00 521.00 168.00" xmlns="http://www.w3.org/2000/svg" xmlns:xlink="http://www.w3.org/1999/xlink">
<g id="graph0" class="graph" transform="scale(1 1) rotate(0) translate(4 164)">
<title>G</title>
<polygon fill="white" stroke="none" points="-4,4 -4,-164 517,-164 517,4 -4,4"/>
<g id="clust1" class="cluster"><title>cluster_Global</title>
<path fill="none" stroke="gray" d="M20,-8C20,-8 493,-8 493,-8 499,-8 505,-14 505,-20 505,-20 505,-140 505,-140 505,-146 499,-152 493,-152 493,-152 20,-152 20,-152 14,-152 8,-146 8,-140 8,-140 8,-20 8,-20 8,-14 14,-8 20,-8"/>
<text text-anchor="middle" x="256.5" y="-139.2" font-family="Times,serif" font-size="11.00" fill="gray">Global</text>
</g>
<g id="clust2" class="cluster"><title>cluster_\VirtualStyle</title>
<path fill="none" stroke="gray" d="M28,-16C28,-16 485,-16 485,-16 491,-16 497,-22 497,-28 497,-28 497,-112 497,-112 497,-118 491,-124 485,-124 485,-124 28,-124 28,-124 22,-124 16,-118 16,-112 16,-112 16,-28 16,-28 16,-22 22,-16 28,-16"/>
<text text-anchor="middle" x="256.5" y="-111.2" font-family="Times,serif" font-size="11.00" fill="gray">VirtualStyle</text>
</g>
<g id="clust3" class="cluster"><title>cluster_\VirtualStyle\PhpLibraryBoilerplate</title>
<path fill="none" stroke="gray" d="M36,-24C36,-24 477,-24 477,-24 483,-24 489,-30 489,-36 489,-36 489,-84 489,-84 489,-90 483,-96 477,-96 477,-96 36,-96 36,-96 30,-96 24,-90 24,-84 24,-84 24,-36 24,-36 24,-30 30,-24 36,-24"/>
<text text-anchor="middle" x="256.5" y="-83.2" font-family="Times,serif" font-size="11.00" fill="gray">PhpLibraryBoilerplate</text>
</g>
<!-- \\VirtualStyle\\PhpLibraryBoilerplate\\PhpLibraryBoilerplate -->
<g id="node1" class="node"><title>\\VirtualStyle\\PhpLibraryBoilerplate\\PhpLibraryBoilerplate</title>
<polygon fill="none" stroke="black" points="481,-68 323,-68 323,-32 481,-32 481,-68"/>
<text text-anchor="middle" x="402" y="-47.2" font-family="Courier,monospace" font-size="11.00">PhpLibraryBoilerplate</text>
</g>
<!-- \\VirtualStyle\\PhpLibraryBoilerplate\\PhpLibraryBoilerplateInterface -->
<g id="node2" class="node"><title>\\VirtualStyle\\PhpLibraryBoilerplate\\PhpLibraryBoilerplateInterface</title>
<polygon fill="none" stroke="black" points="251,-68 32,-68 32,-32 251,-32 251,-68"/>
<text text-anchor="middle" x="141.5" y="-47.2" font-family="Courier,monospace" font-size="11.00">PhpLibraryBoilerplateInterface</text>
</g>
<!-- \\VirtualStyle\\PhpLibraryBoilerplate\\PhpLibraryBoilerplate&#45;&gt;\\VirtualStyle\\PhpLibraryBoilerplate\\PhpLibraryBoilerplateInterface -->
<g id="edge1" class="edge"><title>\\VirtualStyle\\PhpLibraryBoilerplate\\PhpLibraryBoilerplate&#45;&gt;\\VirtualStyle\\PhpLibraryBoilerplate\\PhpLibraryBoilerplateInterface</title>
<path fill="none" stroke="black" stroke-dasharray="1,5" d="M322.74,-50C303.329,-50 282.091,-50 261.221,-50"/>
<polygon fill="none" stroke="black" points="261.015,-46.5001 251.015,-50 261.015,-53.5001 261.015,-46.5001"/>
</g>
</g>
</svg>
