<?xml version="1.0" encoding="UTF-8" standalone="no"?>
<!DOCTYPE svg PUBLIC "-//W3C//DTD SVG 1.1//EN"
 "http://www.w3.org/Graphics/SVG/1.1/DTD/svg11.dtd">
<!-- Generated by graphviz version 2.38.0 (20140413.2041)
 -->
<!-- Title: G Pages: 1 -->
<svg width="508pt" height="168pt"
 viewBox="0.00 0.00 508.00 168.00" xmlns="http://www.w3.org/2000/svg" xmlns:xlink="http://www.w3.org/1999/xlink">
<g id="graph0" class="graph" transform="scale(1 1) rotate(0) translate(4 164)">
<title>G</title>
<polygon fill="white" stroke="none" points="-4,4 -4,-164 504,-164 504,4 -4,4"/>
<g id="clust1" class="cluster"><title>cluster_Global</title>
<path fill="none" stroke="gray" d="M20,-8C20,-8 480,-8 480,-8 486,-8 492,-14 492,-20 492,-20 492,-140 492,-140 492,-146 486,-152 480,-152 480,-152 20,-152 20,-152 14,-152 8,-146 8,-140 8,-140 8,-20 8,-20 8,-14 14,-8 20,-8"/>
<text text-anchor="middle" x="250" y="-139.2" font-family="Times,serif" font-size="11.00" fill="gray">Global</text>
</g>
<g id="clust2" class="cluster"><title>cluster_\VirtualStyle</title>
<path fill="none" stroke="gray" d="M28,-16C28,-16 472,-16 472,-16 478,-16 484,-22 484,-28 484,-28 484,-112 484,-112 484,-118 478,-124 472,-124 472,-124 28,-124 28,-124 22,-124 16,-118 16,-112 16,-112 16,-28 16,-28 16,-22 22,-16 28,-16"/>
<text text-anchor="middle" x="250" y="-111.2" font-family="Times,serif" font-size="11.00" fill="gray">VirtualStyle</text>
</g>
<g id="clust3" class="cluster"><title>cluster_\VirtualStyle\PhpLibraryBoileplate</title>
<path fill="none" stroke="gray" d="M36,-24C36,-24 464,-24 464,-24 470,-24 476,-30 476,-36 476,-36 476,-84 476,-84 476,-90 470,-96 464,-96 464,-96 36,-96 36,-96 30,-96 24,-90 24,-84 24,-84 24,-36 24,-36 24,-30 30,-24 36,-24"/>
<text text-anchor="middle" x="250" y="-83.2" font-family="Times,serif" font-size="11.00" fill="gray">PhpLibraryBoileplate</text>
</g>
<!-- \\VirtualStyle\\PhpLibraryBoileplate\\PhpLibraryBoileplate -->
<g id="node1" class="node"><title>\\VirtualStyle\\PhpLibraryBoileplate\\PhpLibraryBoileplate</title>
<polygon fill="none" stroke="black" points="468,-68 316,-68 316,-32 468,-32 468,-68"/>
<text text-anchor="middle" x="392" y="-47.2" font-family="Courier,monospace" font-size="11.00">PhpLibraryBoileplate</text>
</g>
<!-- \\VirtualStyle\\PhpLibraryBoileplate\\PhpLibraryBoileplateInterface -->
<g id="node2" class="node"><title>\\VirtualStyle\\PhpLibraryBoileplate\\PhpLibraryBoileplateInterface</title>
<polygon fill="none" stroke="black" points="244,-68 32,-68 32,-32 244,-32 244,-68"/>
<text text-anchor="middle" x="138" y="-47.2" font-family="Courier,monospace" font-size="11.00">PhpLibraryBoileplateInterface</text>
</g>
<!-- \\VirtualStyle\\PhpLibraryBoileplate\\PhpLibraryBoileplate&#45;&gt;\\VirtualStyle\\PhpLibraryBoileplate\\PhpLibraryBoileplateInterface -->
<g id="edge1" class="edge"><title>\\VirtualStyle\\PhpLibraryBoileplate\\PhpLibraryBoileplate&#45;&gt;\\VirtualStyle\\PhpLibraryBoileplate\\PhpLibraryBoileplateInterface</title>
<path fill="none" stroke="black" stroke-dasharray="1,5" d="M315.733,-50C296.414,-50 275.186,-50 254.348,-50"/>
<polygon fill="none" stroke="black" points="254.161,-46.5001 244.161,-50 254.161,-53.5001 254.161,-46.5001"/>
</g>
</g>
</svg>
